<svg width="176" height="47" viewBox="0 0 176 47" fill="none" xmlns="http://www.w3.org/2000/svg">
<rect x="0.5" y="0.5" width="175" height="46" rx="5.5" fill="white"/>
<path d="M42 18.5H24V16.5H42V18.5Z" fill="#272343"/>
<path d="M42 24.5H24V22.5H42V24.5Z" fill="#272343"/>
<path d="M42 30.5H24V28.5H42V30.5Z" fill="#272343"/>
<path d="M59.9787 29L60.9134 26.3054H64.8906L65.8203 29H67.451L63.7869 18.8182H62.0121L58.348 29H59.9787ZM61.3608 25.0128L62.8622 20.6676H62.9418L64.4432 25.0128H61.3608ZM70.2885 18.8182H68.802V29H70.2885V18.8182ZM73.7749 18.8182H72.2884V29H73.7749V18.8182ZM88.0558 22.1293C87.7077 19.9517 86.0025 18.679 83.8498 18.679C81.2148 18.679 79.271 20.6527 79.271 23.9091C79.271 27.1655 81.2049 29.1392 83.8498 29.1392C86.087 29.1392 87.7227 27.7372 88.0558 25.7237L86.5046 25.7188C86.2411 27.0213 85.1474 27.7372 83.8597 27.7372C82.1147 27.7372 80.7972 26.3999 80.7972 23.9091C80.7972 21.4382 82.1097 20.081 83.8647 20.081C85.1623 20.081 86.2511 20.8118 86.5046 22.1293H88.0558ZM91.997 29.169C93.2598 29.169 93.9707 28.5277 94.2541 27.956H94.3137V29H95.7654V23.929C95.7654 21.7067 94.0154 21.2642 92.8024 21.2642C91.4203 21.2642 90.1475 21.821 89.6504 23.2131L91.0474 23.5312C91.2662 22.9893 91.823 22.4673 92.8223 22.4673C93.7818 22.4673 94.274 22.9695 94.274 23.8345V23.8693C94.274 24.4112 93.7172 24.4013 92.345 24.5604C90.8983 24.7294 89.4167 25.1072 89.4167 26.8423C89.4167 28.3438 90.5453 29.169 91.997 29.169ZM92.3201 27.9759C91.4799 27.9759 90.8734 27.598 90.8734 26.8622C90.8734 26.0668 91.5794 25.7834 92.4395 25.669C92.9217 25.6044 94.0652 25.4751 94.2789 25.2614V26.2457C94.2789 27.1506 93.5581 27.9759 92.3201 27.9759ZM101.31 21.3636H99.744V19.5341H98.2575V21.3636H97.1388V22.5568H98.2575V27.0661C98.2525 28.4531 99.3114 29.1243 100.485 29.0994C100.957 29.0945 101.275 29.005 101.449 28.9403L101.181 27.7124C101.081 27.7322 100.897 27.777 100.659 27.777C100.176 27.777 99.744 27.6179 99.744 26.7578V22.5568H101.31V21.3636ZM106.164 29.1541C107.829 29.1541 109.007 28.3338 109.345 27.0909L107.938 26.8374C107.67 27.5582 107.024 27.9261 106.178 27.9261C104.906 27.9261 104.051 27.1009 104.011 25.6293H109.44V25.1023C109.44 22.343 107.789 21.2642 106.059 21.2642C103.931 21.2642 102.529 22.8849 102.529 25.2315C102.529 27.603 103.911 29.1541 106.164 29.1541ZM104.016 24.5156C104.075 23.4318 104.861 22.4922 106.069 22.4922C107.222 22.4922 107.978 23.3473 107.983 24.5156H104.016ZM114.291 32.0227C116.235 32.0227 117.736 31.1328 117.736 29.169V21.3636H116.279V22.6016H116.17C115.907 22.1293 115.38 21.2642 113.958 21.2642C112.113 21.2642 110.756 22.7209 110.756 25.152C110.756 27.5881 112.143 28.8857 113.948 28.8857C115.35 28.8857 115.892 28.0952 116.16 27.608H116.255V29.1094C116.255 30.3075 115.434 30.8246 114.306 30.8246C113.068 30.8246 112.586 30.2031 112.322 29.7656L111.044 30.2926C111.447 31.2273 112.466 32.0227 114.291 32.0227ZM114.276 27.6527C112.949 27.6527 112.257 26.6335 112.257 25.1321C112.257 23.6655 112.934 22.527 114.276 22.527C115.574 22.527 116.27 23.5859 116.27 25.1321C116.27 26.7081 115.559 27.6527 114.276 27.6527ZM122.946 29.1541C125.099 29.1541 126.506 27.5781 126.506 25.2166C126.506 22.8402 125.099 21.2642 122.946 21.2642C120.794 21.2642 119.387 22.8402 119.387 25.2166C119.387 27.5781 120.794 29.1541 122.946 29.1541ZM122.951 27.9062C121.544 27.9062 120.888 26.6783 120.888 25.2116C120.888 23.75 121.544 22.5071 122.951 22.5071C124.348 22.5071 125.005 23.75 125.005 25.2116C125.005 26.6783 124.348 27.9062 122.951 27.9062ZM128.165 29H129.652V24.3366C129.652 23.3374 130.422 22.6165 131.476 22.6165C131.785 22.6165 132.133 22.6712 132.252 22.706V21.2841C132.103 21.2642 131.809 21.2493 131.621 21.2493C130.726 21.2493 129.96 21.7564 129.682 22.5767H129.602V21.3636H128.165V29ZM133.538 29H135.025V21.3636H133.538V29ZM134.289 20.1854C134.801 20.1854 135.229 19.7876 135.229 19.3004C135.229 18.8132 134.801 18.4105 134.289 18.4105C133.772 18.4105 133.349 18.8132 133.349 19.3004C133.349 19.7876 133.772 20.1854 134.289 20.1854ZM140.316 29.1541C141.981 29.1541 143.16 28.3338 143.498 27.0909L142.091 26.8374C141.822 27.5582 141.176 27.9261 140.331 27.9261C139.058 27.9261 138.203 27.1009 138.163 25.6293H143.592V25.1023C143.592 22.343 141.942 21.2642 140.211 21.2642C138.084 21.2642 136.682 22.8849 136.682 25.2315C136.682 27.603 138.064 29.1541 140.316 29.1541ZM138.168 24.5156C138.228 23.4318 139.013 22.4922 140.221 22.4922C141.375 22.4922 142.131 23.3473 142.135 24.5156H138.168ZM150.964 23.228C150.656 22.0398 149.726 21.2642 148.075 21.2642C146.35 21.2642 145.127 22.174 145.127 23.5263C145.127 24.6101 145.783 25.331 147.215 25.6491L148.508 25.9325C149.244 26.0966 149.587 26.4247 149.587 26.902C149.587 27.4936 148.955 27.956 147.981 27.956C147.091 27.956 146.519 27.5732 146.34 26.8224L144.903 27.0412C145.152 28.3935 146.276 29.1541 147.991 29.1541C149.835 29.1541 151.113 28.1747 151.113 26.7926C151.113 25.7138 150.427 25.0476 149.025 24.7244L147.812 24.446C146.972 24.2472 146.609 23.9638 146.614 23.4467C146.609 22.8601 147.245 22.4425 148.09 22.4425C149.015 22.4425 149.442 22.9545 149.616 23.4666L150.964 23.228Z" fill="#272343"/>
<rect x="0.5" y="0.5" width="175" height="46" rx="5.5" stroke="#E1E3E6"/>
</svg>
